<svg width="32" height="32" viewBox="0 0 32 32" fill="none" xmlns="http://www.w3.org/2000/svg">
<path fill-rule="evenodd" clip-rule="evenodd" d="M26.391 9.99445C24.3151 6.4109 20.4393 4 16.0001 4C9.3725 4 4 9.37264 4 15.9999C4 18.1742 4.57841 20.2131 5.58931 21.9718C7.66004 25.5743 11.5469 28 16.0001 28L16.1337 27.9993C20.5214 27.9514 24.3441 25.5479 26.3972 21.9947L21.1822 18.9735C21.1905 18.959 21.1988 18.9444 21.207 18.9299L21.1821 18.9735L21.1822 18.9735C20.151 20.7669 18.217 21.9754 16.0001 21.9754C13.7789 21.9754 11.8426 20.7626 10.8126 18.9645C10.3123 18.0907 10.0246 17.0791 10.0246 15.9999C10.0246 12.6999 12.7 10.0246 16.0001 10.0246L16.0682 10.0249C18.2322 10.0492 20.1187 11.225 21.1478 12.9673L26.3708 9.95996L26.391 9.99445ZM25.2761 14.2495V12.5476H24.4252V14.2495H22.7232V15.1005H24.4252V16.8024H22.7232V17.6534H24.4252V19.3553H25.2761V17.6534H26.9781V19.3553H27.8291V17.6534H29.531V16.8024H27.8291V15.1005H29.531V14.2495H27.8291V12.5476H26.9781V14.2495H25.2761ZM25.2761 15.1005H26.9781V16.8024H25.2761V15.1005Z" fill="white"/>
</svg>
